<?xml version="1.0" encoding="UTF-8"?>
<svg id="Extra_Extra_Large" xmlns="http://www.w3.org/2000/svg" xmlns:xlink="http://www.w3.org/1999/xlink" viewBox="0 0 125 125.71">
  <defs>
    <style>
      .cls-1 {
        opacity: .5;
      }

      .cls-1, .cls-2, .cls-3, .cls-4, .cls-5, .cls-6, .cls-7 {
        fill: none;
        stroke: #fff;
        stroke-linecap: round;
        stroke-miterlimit: 10;
      }

      .cls-2 {
        opacity: .9;
      }

      .cls-8 {
        fill: url(#radial-gradient);
      }

      .cls-3 {
        opacity: .6;
      }

      .cls-4 {
        opacity: .4;
      }

      .cls-5 {
        opacity: .95;
      }

      .cls-7 {
        opacity: .8;
      }
    </style>
    <radialGradient id="radial-gradient" cx="29.95" cy="53.96" fx="29.95" fy="53.96" r="65.84" gradientTransform="translate(38.22 9.37) rotate(4.74) scale(.95)" gradientUnits="userSpaceOnUse">
      <stop offset="0" stop-color="#262262" stop-opacity=".95"/>
      <stop offset=".25" stop-color="#2a2664" stop-opacity=".92"/>
      <stop offset=".45" stop-color="#37346c" stop-opacity=".82"/>
      <stop offset=".63" stop-color="#4e4c79" stop-opacity=".65"/>
      <stop offset=".79" stop-color="#6e6e8b" stop-opacity=".41"/>
      <stop offset=".95" stop-color="#9799a3" stop-opacity=".11"/>
      <stop offset="1" stop-color="#a7a9ac" stop-opacity="0"/>
    </radialGradient>
  </defs>
  <circle class="cls-8" cx="62.32" cy="62.78" r="62.5"/>
  <g>
    <ellipse class="cls-5" cx="62.54" cy="62.51" rx="5.42" ry="5.41"/>
    <path class="cls-6" d="M53.87,68.73c-1.42-1.99-2.17-4.47-1.95-7.1.16-1.9.8-3.64,1.8-5.11"/>
    <path class="cls-2" d="M68.94,71.14c-2.01,1.48-4.55,2.27-7.23,2.05-2.23-.18-4.23-1.04-5.85-2.34"/>
    <path class="cls-6" d="M70.99,55.86c1.63,2.06,2.51,4.72,2.28,7.54-.18,2.13-.97,4.06-2.18,5.64"/>
    <path class="cls-2" d="M55.86,54.18c2.07-1.67,4.76-2.58,7.62-2.34,2.04.17,3.9.9,5.44,2.03"/>
    <path class="cls-6" d="M49.69,72c-2.21-3.01-3.38-6.8-3.05-10.82.24-2.93,1.26-5.61,2.83-7.86"/>
    <path class="cls-7" d="M72.36,75.29c-3.05,2.32-6.93,3.56-11.05,3.22-3.27-.27-6.22-1.5-8.61-3.39"/>
    <path class="cls-6" d="M75.29,52.63c2.4,3.07,3.69,7.02,3.34,11.21-.27,3.24-1.48,6.17-3.34,8.55"/>
    <path class="cls-7" d="M52.5,50.06c3.11-2.53,7.16-3.91,11.46-3.55,3.07.25,5.87,1.36,8.18,3.06"/>
    <path class="cls-6" d="M44.13,76.4c-3.3-4.37-5.06-9.91-4.57-15.79.37-4.45,1.98-8.49,4.45-11.83"/>
    <path class="cls-3" d="M76.91,80.54c-4.44,3.54-10.18,5.46-16.28,4.95-4.69-.39-8.94-2.16-12.38-4.88"/>
    <path class="cls-6" d="M80.61,48.21c3.5,4.43,5.4,10.14,4.89,16.21-.38,4.55-2.05,8.69-4.64,12.07"/>
    <path class="cls-3" d="M48.14,44.5c4.44-3.55,10.19-5.47,16.3-4.97,4.6.38,8.77,2.09,12.17,4.71"/>
    <path class="cls-2" d="M38.63,81.05c-4.51-5.75-6.95-13.16-6.29-21.02.48-5.84,2.61-11.16,5.89-15.52"/>
    <path class="cls-2" d="M85.84,43.87c4.56,5.77,7.03,13.22,6.38,21.13-.49,5.85-2.62,11.17-5.9,15.54"/>
    <path class="cls-7" d="M31.61,87.11c-6.05-7.59-9.33-17.42-8.46-27.86.65-7.86,3.57-14.99,8.05-20.81"/>
    <path class="cls-7" d="M93.19,37.7c6.16,7.62,9.51,17.54,8.64,28.08-.66,8-3.67,15.25-8.29,21.12"/>
    <path class="cls-1" d="M44.11,37.79c5.84-4.4,13.29-6.69,21.14-5.88,5.83.6,11.1,2.83,15.41,6.19"/>
    <path class="cls-1" d="M81.03,86.37c-5.73,4.54-13.13,7.01-20.99,6.39-5.85-.46-11.17-2.56-15.55-5.82"/>
    <path class="cls-4" d="M36.93,31.3c7.39-6.3,17.1-9.91,27.56-9.4,7.88.39,15.1,3.06,21.07,7.34"/>
    <path class="cls-4" d="M87.11,93.14c-7.42,6.27-17.14,9.83-27.6,9.27-7.88-.42-15.09-3.13-21.03-7.44"/>
  </g>
</svg>