<?xml version="1.0" encoding="UTF-8"?>
<svg id="Extra_Small" xmlns="http://www.w3.org/2000/svg" xmlns:xlink="http://www.w3.org/1999/xlink" viewBox="0 0 53 53">
  <defs>
    <style>
      .cls-1 {
        opacity: .9;
      }

      .cls-1, .cls-2, .cls-3, .cls-4 {
        fill: none;
        stroke: #fff;
        stroke-linecap: round;
        stroke-miterlimit: 10;
      }

      .cls-5 {
        fill: url(#radial-gradient);
      }

      .cls-2 {
        opacity: .7;
      }

      .cls-3 {
        opacity: .95;
      }

      .cls-4 {
        opacity: .8;
      }
    </style>
    <radialGradient id="radial-gradient" cx="26.54" cy="26.49" fx="26.54" fy="26.49" r="26.49" gradientTransform="translate(2.41 -2.19) rotate(4.99)" gradientUnits="userSpaceOnUse">
      <stop offset="0" stop-color="#262262" stop-opacity=".95"/>
      <stop offset=".07" stop-color="#262262" stop-opacity=".9"/>
      <stop offset=".14" stop-color="#262262" stop-opacity=".76"/>
      <stop offset=".22" stop-color="#262262" stop-opacity=".53"/>
      <stop offset=".23" stop-color="#262262" stop-opacity=".5"/>
      <stop offset=".72" stop-color="#dddbe2" stop-opacity=".4"/>
      <stop offset=".84" stop-color="#eeedf0" stop-opacity=".19"/>
      <stop offset=".94" stop-color="#fafafb" stop-opacity=".05"/>
      <stop offset="1" stop-color="#fff" stop-opacity="0"/>
    </radialGradient>
  </defs>
  <circle class="cls-5" cx="26.54" cy="26.51" r="26.49"/>
  <g id="New_Group">
    <ellipse class="cls-3" cx="26.68" cy="26.42" rx="3.74" ry="3.73"/>
    <path class="cls-1" d="M20.69,30.7c-.98-1.37-1.5-3.09-1.35-4.9.11-1.31.55-2.51,1.24-3.52"/>
    <path class="cls-1" d="M32.5,21.83c1.13,1.42,1.73,3.25,1.57,5.2-.12,1.47-.67,2.8-1.5,3.89"/>
    <path class="cls-4" d="M17.81,32.96c-1.52-2.08-2.33-4.69-2.1-7.46.17-2.02.87-3.87,1.95-5.42"/>
    <path class="cls-4" d="M35.47,19.6c1.65,2.12,2.55,4.84,2.31,7.73-.19,2.23-1.02,4.26-2.31,5.9"/>
    <path class="cls-2" d="M13.98,35.99c-2.27-3.01-3.49-6.84-3.15-10.89.25-3.07,1.36-5.86,3.07-8.16"/>
    <path class="cls-2" d="M39.14,16.55c2.42,3.05,3.72,6.99,3.37,11.18-.26,3.14-1.42,5.99-3.2,8.32"/>
  </g>
</svg>