<?xml version="1.0" encoding="UTF-8"?>
<svg id="Extra_Extra_Large" xmlns="http://www.w3.org/2000/svg" xmlns:xlink="http://www.w3.org/1999/xlink" viewBox="0 0 150.01 150">
  <defs>
    <style>
      .cls-1 {
        opacity: .5;
      }

      .cls-1, .cls-2, .cls-3, .cls-4, .cls-5, .cls-6, .cls-7 {
        fill: none;
        stroke: #fff;
        stroke-linecap: round;
        stroke-miterlimit: 10;
      }

      .cls-2 {
        opacity: .9;
      }

      .cls-8 {
        fill: url(#radial-gradient);
      }

      .cls-3 {
        opacity: .6;
      }

      .cls-4 {
        opacity: .7;
      }

      .cls-5 {
        opacity: .95;
      }

      .cls-7 {
        opacity: .8;
      }
    </style>
    <radialGradient id="radial-gradient" cx="63.38" cy="77.57" fx="63.38" fy="77.57" r="65.84" gradientTransform="translate(10.36 -19.03) rotate(4.74) scale(1.14)" gradientUnits="userSpaceOnUse">
      <stop offset="0" stop-color="#262262" stop-opacity=".95"/>
      <stop offset=".25" stop-color="#2a2664" stop-opacity=".92"/>
      <stop offset=".45" stop-color="#37346c" stop-opacity=".82"/>
      <stop offset=".63" stop-color="#4e4c79" stop-opacity=".65"/>
      <stop offset=".79" stop-color="#6e6e8b" stop-opacity=".41"/>
      <stop offset=".95" stop-color="#9799a3" stop-opacity=".11"/>
      <stop offset="1" stop-color="#a7a9ac" stop-opacity="0"/>
    </radialGradient>
  </defs>
  <circle class="cls-8" cx="75" cy="75" r="75"/>
  <g>
    <ellipse class="cls-5" cx="75" cy="75.22" rx="6.51" ry="6.5"/>
    <path class="cls-6" d="M64.59,82.68c-1.7-2.39-2.6-5.37-2.34-8.52.19-2.28.96-4.37,2.16-6.13"/>
    <path class="cls-2" d="M82.67,85.57c-2.41,1.78-5.46,2.72-8.68,2.46-2.67-.22-5.08-1.24-7.02-2.81"/>
    <path class="cls-6" d="M85.13,67.24c1.96,2.47,3.02,5.66,2.74,9.05-.21,2.56-1.16,4.87-2.61,6.77"/>
    <path class="cls-2" d="M66.98,65.22c2.48-2.01,5.71-3.1,9.14-2.81,2.45.2,4.68,1.08,6.52,2.43"/>
    <path class="cls-6" d="M59.57,86.6c-2.65-3.61-4.06-8.16-3.66-12.98.29-3.52,1.51-6.73,3.4-9.43"/>
    <path class="cls-7" d="M86.77,90.55c-3.66,2.78-8.32,4.27-13.26,3.86-3.92-.33-7.47-1.8-10.34-4.07"/>
    <path class="cls-6" d="M90.3,63.36c2.88,3.69,4.43,8.42,4.01,13.45-.32,3.89-1.78,7.41-4.01,10.27"/>
    <path class="cls-7" d="M62.95,60.28c3.73-3.04,8.59-4.69,13.76-4.26,3.69.31,7.04,1.63,9.82,3.67"/>
    <path class="cls-6" d="M52.9,91.88c-3.96-5.24-6.07-11.9-5.49-18.95.44-5.34,2.37-10.19,5.35-14.19"/>
    <path class="cls-4" d="M92.23,96.85c-5.32,4.25-12.22,6.55-19.54,5.94-5.63-.47-10.73-2.59-14.85-5.85"/>
    <path class="cls-6" d="M96.68,58.06c4.2,5.31,6.48,12.17,5.87,19.45-.45,5.46-2.47,10.43-5.56,14.48"/>
    <path class="cls-4" d="M57.71,53.61c5.33-4.26,12.23-6.57,19.56-5.96,5.52.46,10.52,2.51,14.6,5.65"/>
    <path class="cls-6" d="M46.3,97.46c-5.41-6.9-8.34-15.79-7.55-25.22.58-7.01,3.13-13.39,7.07-18.63"/>
    <path class="cls-6" d="M102.95,52.85c5.48,6.92,8.44,15.86,7.65,25.35-.58,7.02-3.14,13.4-7.08,18.65"/>
    <path class="cls-6" d="M37.87,104.73c-7.26-9.11-11.2-20.91-10.16-33.43.78-9.43,4.28-17.99,9.66-24.97"/>
    <path class="cls-6" d="M111.78,45.44c7.4,9.15,11.42,21.05,10.37,33.69-.8,9.6-4.41,18.3-9.95,25.34"/>
    <path class="cls-3" d="M52.88,45.55c7.01-5.28,15.95-8.03,25.37-7.06,7,.72,13.32,3.39,18.49,7.43"/>
    <path class="cls-3" d="M97.18,103.85c-6.88,5.44-15.75,8.41-25.19,7.67-7.01-.55-13.4-3.07-18.66-6.98"/>
    <path class="cls-1" d="M44.26,37.76c8.86-7.56,20.52-11.89,33.07-11.28,9.45.46,18.13,3.67,25.28,8.81"/>
    <path class="cls-1" d="M104.48,111.97c-8.9,7.52-20.57,11.8-33.13,11.12-9.45-.51-18.11-3.76-25.24-8.93"/>
  </g>
</svg>