<?xml version="1.0" encoding="UTF-8"?>
<svg id="Large" xmlns="http://www.w3.org/2000/svg" xmlns:xlink="http://www.w3.org/1999/xlink" viewBox="0 0 80 80">
  <defs>
    <style>
      .cls-1 {
        opacity: .5;
      }

      .cls-1, .cls-2, .cls-3, .cls-4, .cls-5, .cls-6 {
        fill: none;
        stroke: #fff;
        stroke-linecap: round;
        stroke-miterlimit: 10;
      }

      .cls-2 {
        opacity: .9;
      }

      .cls-7 {
        fill: url(#radial-gradient);
      }

      .cls-3 {
        opacity: .6;
      }

      .cls-4 {
        opacity: .7;
      }

      .cls-5 {
        opacity: .95;
      }

      .cls-6 {
        opacity: .8;
      }
    </style>
    <radialGradient id="radial-gradient" cx="39.81" cy="40.14" fx="39.81" fy="40.14" r="40.15" gradientTransform="translate(3.31 -3.02) rotate(4.55)" gradientUnits="userSpaceOnUse">
      <stop offset="0" stop-color="#262262" stop-opacity=".95"/>
      <stop offset=".17" stop-color="#2f2b67" stop-opacity=".88"/>
      <stop offset=".42" stop-color="#494676" stop-opacity=".69"/>
      <stop offset=".71" stop-color="#73728e" stop-opacity=".38"/>
      <stop offset="1" stop-color="#a7a9ac" stop-opacity="0"/>
    </radialGradient>
  </defs>
  <g id="New_Group">
    <circle class="cls-7" cx="39.81" cy="40.15" r="40.15"/>
    <ellipse class="cls-5" cx="40.06" cy="39.98" rx="3.74" ry="3.73"/>
    <path class="cls-2" d="M34.08,44.26c-.98-1.37-1.5-3.09-1.35-4.9.11-1.31.55-2.51,1.24-3.52"/>
    <path class="cls-2" d="M44.47,45.93c-1.39,1.02-3.14,1.56-4.99,1.41-1.53-.13-2.92-.72-4.03-1.62"/>
    <path class="cls-2" d="M45.89,35.39c1.13,1.42,1.73,3.25,1.57,5.2-.12,1.47-.67,2.8-1.5,3.89"/>
    <path class="cls-2" d="M35.45,34.23c1.43-1.15,3.28-1.78,5.25-1.62,1.41.12,2.69.62,3.75,1.4"/>
    <path class="cls-6" d="M31.2,46.52c-1.52-2.08-2.33-4.69-2.1-7.46.17-2.02.87-3.87,1.95-5.42"/>
    <path class="cls-6" d="M46.83,48.79c-2.1,1.6-4.78,2.46-7.62,2.22-2.25-.19-4.29-1.04-5.94-2.34"/>
    <path class="cls-6" d="M48.86,33.16c1.65,2.12,2.55,4.84,2.31,7.73-.19,2.23-1.02,4.26-2.31,5.9"/>
    <path class="cls-6" d="M33.14,31.39c2.14-1.74,4.94-2.69,7.91-2.45,2.12.18,4.05.94,5.64,2.11"/>
    <path class="cls-4" d="M27.36,49.55c-2.27-3.01-3.49-6.84-3.15-10.89.25-3.07,1.36-5.86,3.07-8.16"/>
    <path class="cls-4" d="M52.53,30.11c2.42,3.05,3.72,6.99,3.37,11.18-.26,3.14-1.42,5.99-3.2,8.32"/>
    <path class="cls-3" d="M23.57,52.76c-3.11-3.97-4.79-9.08-4.34-14.5.33-4.03,1.8-7.69,4.06-10.71"/>
    <path class="cls-3" d="M56.13,27.12c3.15,3.98,4.85,9.11,4.4,14.57-.33,4.03-1.8,7.7-4.07,10.72"/>
    <path class="cls-1" d="M18.73,56.94c-4.17-5.24-6.43-12.02-5.84-19.22.45-5.42,2.46-10.34,5.55-14.35"/>
    <path class="cls-1" d="M61.2,22.86c4.25,5.26,6.56,12.1,5.96,19.37-.46,5.52-2.53,10.52-5.72,14.57"/>
  </g>
</svg>