<?xml version="1.0" encoding="UTF-8"?>
<svg id="Extra_Small" xmlns="http://www.w3.org/2000/svg" xmlns:xlink="http://www.w3.org/1999/xlink" viewBox="0 0 52.98 52.98">
  <defs>
    <style>
      .cls-1 {
        opacity: .9;
      }

      .cls-1, .cls-2, .cls-3, .cls-4 {
        fill: none;
        stroke: #fff;
        stroke-linecap: round;
        stroke-miterlimit: 10;
      }

      .cls-5 {
        fill: url(#radial-gradient);
      }

      .cls-2 {
        opacity: .7;
      }

      .cls-3 {
        opacity: .95;
      }

      .cls-4 {
        opacity: .8;
      }
    </style>
    <radialGradient id="radial-gradient" cx="26.49" cy="26.49" fx="26.49" fy="26.49" r="26.49" gradientUnits="userSpaceOnUse">
      <stop offset="0" stop-color="#00324a"/>
      <stop offset=".21" stop-color="#0c3a51" stop-opacity=".93"/>
      <stop offset=".47" stop-color="#2f5365" stop-opacity=".72"/>
      <stop offset=".76" stop-color="#697d87" stop-opacity=".37"/>
      <stop offset="1" stop-color="#a7a9ac" stop-opacity="0"/>
    </radialGradient>
  </defs>
  <circle class="cls-5" cx="26.49" cy="26.49" r="26.49"/>
  <g id="New_Group">
    <ellipse class="cls-3" cx="26.62" cy="26.4" rx="3.74" ry="3.73"/>
    <path class="cls-1" d="M20.64,30.68c-.98-1.37-1.5-3.09-1.35-4.9.11-1.31.55-2.51,1.24-3.52"/>
    <path class="cls-1" d="M32.45,21.81c1.13,1.42,1.73,3.25,1.57,5.2-.12,1.47-.67,2.8-1.5,3.89"/>
    <path class="cls-4" d="M17.76,32.94c-1.52-2.08-2.33-4.69-2.1-7.46.17-2.02.87-3.87,1.95-5.42"/>
    <path class="cls-4" d="M35.42,19.58c1.65,2.12,2.55,4.84,2.31,7.73-.19,2.23-1.02,4.26-2.31,5.9"/>
    <path class="cls-2" d="M13.92,35.97c-2.27-3.01-3.49-6.84-3.15-10.89.25-3.07,1.36-5.86,3.07-8.16"/>
    <path class="cls-2" d="M39.09,16.53c2.42,3.05,3.72,6.99,3.37,11.18-.26,3.14-1.42,5.99-3.2,8.32"/>
  </g>
</svg>