<?xml version="1.0" encoding="UTF-8"?>
<svg id="Extra_Large" xmlns="http://www.w3.org/2000/svg" xmlns:xlink="http://www.w3.org/1999/xlink" viewBox="0 0 90 90">
  <defs>
    <style>
      .cls-1 {
        opacity: .5;
      }

      .cls-1, .cls-2, .cls-3, .cls-4, .cls-5, .cls-6 {
        fill: none;
        stroke: #fff;
        stroke-linecap: round;
        stroke-miterlimit: 10;
      }

      .cls-2 {
        opacity: .9;
      }

      .cls-7 {
        fill: url(#radial-gradient);
      }

      .cls-3 {
        opacity: .6;
      }

      .cls-4 {
        opacity: .7;
      }

      .cls-5 {
        opacity: .95;
      }

      .cls-6 {
        opacity: .8;
      }
    </style>
    <radialGradient id="radial-gradient" cx="49.68" cy="41.46" fx="49.68" fy="41.46" r="39.96" gradientTransform="translate(94.65 -8.2) rotate(94.28) scale(1.15 1.12) skewX(-.15)" gradientUnits="userSpaceOnUse">
      <stop offset="0" stop-color="#262262" stop-opacity=".95"/>
      <stop offset=".13" stop-color="#262262" stop-opacity=".9"/>
      <stop offset=".29" stop-color="#262262" stop-opacity=".76"/>
      <stop offset=".45" stop-color="#262262" stop-opacity=".53"/>
      <stop offset=".47" stop-color="#262262" stop-opacity=".5"/>
      <stop offset=".86" stop-color="#dddbe2" stop-opacity=".4"/>
      <stop offset=".92" stop-color="#eeedf0" stop-opacity=".19"/>
      <stop offset=".97" stop-color="#fafafb" stop-opacity=".05"/>
      <stop offset="1" stop-color="#fff" stop-opacity="0"/>
    </radialGradient>
  </defs>
  <g id="New_Group">
    <ellipse class="cls-7" cx="44.25" cy="45" rx="45" ry="45.8" transform="translate(-16.85 60.82) rotate(-60)"/>
    <ellipse class="cls-5" cx="45.05" cy="45.43" rx="3.74" ry="3.73"/>
    <path class="cls-2" d="M39.06,49.71c-.98-1.37-1.5-3.09-1.35-4.9.11-1.31.55-2.51,1.24-3.52"/>
    <path class="cls-2" d="M49.46,51.38c-1.39,1.02-3.14,1.56-4.99,1.41-1.53-.13-2.92-.72-4.03-1.62"/>
    <path class="cls-2" d="M50.87,40.84c1.13,1.42,1.73,3.25,1.57,5.2-.12,1.47-.67,2.8-1.5,3.89"/>
    <path class="cls-2" d="M40.44,39.68c1.43-1.15,3.28-1.78,5.25-1.62,1.41.12,2.69.62,3.75,1.4"/>
    <path class="cls-6" d="M36.18,51.97c-1.52-2.08-2.33-4.69-2.1-7.46.17-2.02.87-3.87,1.95-5.42"/>
    <path class="cls-6" d="M51.82,54.24c-2.1,1.6-4.78,2.46-7.62,2.22-2.25-.19-4.29-1.04-5.94-2.34"/>
    <path class="cls-6" d="M53.84,38.61c1.65,2.12,2.55,4.84,2.31,7.73-.19,2.23-1.02,4.26-2.31,5.9"/>
    <path class="cls-6" d="M38.12,36.84c2.14-1.74,4.94-2.69,7.91-2.45,2.12.18,4.05.94,5.64,2.11"/>
    <path class="cls-4" d="M32.35,55.01c-2.27-3.01-3.49-6.84-3.15-10.89.25-3.07,1.36-5.86,3.07-8.16"/>
    <path class="cls-4" d="M54.95,57.86c-3.06,2.44-7.02,3.76-11.23,3.41-3.24-.27-6.17-1.49-8.54-3.36"/>
    <path class="cls-4" d="M57.51,35.56c2.42,3.05,3.72,6.99,3.37,11.18-.26,3.14-1.42,5.99-3.2,8.32"/>
    <path class="cls-4" d="M35.11,33.01c3.06-2.45,7.03-3.78,11.24-3.43,3.17.26,6.05,1.44,8.39,3.25"/>
    <path class="cls-3" d="M28.55,58.21c-3.11-3.97-4.79-9.08-4.34-14.5.33-4.03,1.8-7.69,4.06-10.71"/>
    <path class="cls-3" d="M61.11,32.57c3.15,3.98,4.85,9.11,4.4,14.57-.33,4.03-1.8,7.7-4.07,10.72"/>
    <path class="cls-1" d="M23.71,62.39c-4.17-5.24-6.43-12.02-5.84-19.22.45-5.42,2.46-10.34,5.55-14.35"/>
    <path class="cls-1" d="M66.19,28.31c4.25,5.26,6.56,12.1,5.96,19.37-.46,5.52-2.53,10.52-5.72,14.57"/>
  </g>
</svg>