<?xml version="1.0" encoding="UTF-8"?>
<svg id="Small" xmlns="http://www.w3.org/2000/svg" xmlns:xlink="http://www.w3.org/1999/xlink" viewBox="0 0 55 55">
  <defs>
    <style>
      .cls-1 {
        opacity: .9;
      }

      .cls-1, .cls-2, .cls-3, .cls-4, .cls-5 {
        fill: none;
        stroke: #fff;
        stroke-linecap: round;
        stroke-miterlimit: 10;
      }

      .cls-6 {
        fill: url(#radial-gradient);
      }

      .cls-2 {
        opacity: .6;
      }

      .cls-3 {
        opacity: .7;
      }

      .cls-4 {
        opacity: .95;
      }

      .cls-5 {
        opacity: .8;
      }
    </style>
    <radialGradient id="radial-gradient" cx="27.41" cy="27.45" fx="27.41" fy="27.45" r="27.54" gradientTransform="translate(2.43 -2.22) rotate(4.87)" gradientUnits="userSpaceOnUse">
      <stop offset="0" stop-color="#262262" stop-opacity=".95"/>
      <stop offset=".08" stop-color="#262262" stop-opacity=".9"/>
      <stop offset=".16" stop-color="#262262" stop-opacity=".76"/>
      <stop offset=".26" stop-color="#262262" stop-opacity=".53"/>
      <stop offset=".27" stop-color="#262262" stop-opacity=".5"/>
      <stop offset=".74" stop-color="#dddbe2" stop-opacity=".4"/>
      <stop offset=".85" stop-color="#eeedf0" stop-opacity=".19"/>
      <stop offset=".95" stop-color="#fafafb" stop-opacity=".05"/>
      <stop offset="1" stop-color="#fff" stop-opacity="0"/>
    </radialGradient>
  </defs>
  <circle class="cls-6" cx="27.42" cy="27.46" r="27.54"/>
  <g id="New_Group">
    <ellipse class="cls-4" cx="27.67" cy="27.42" rx="3.74" ry="3.73"/>
    <path class="cls-1" d="M21.69,31.7c-.98-1.37-1.5-3.09-1.35-4.9.11-1.31.55-2.51,1.24-3.52"/>
    <path class="cls-1" d="M33.5,22.83c1.13,1.42,1.73,3.25,1.57,5.2-.12,1.47-.67,2.8-1.5,3.89"/>
    <path class="cls-5" d="M18.81,33.96c-1.52-2.08-2.33-4.69-2.1-7.46.17-2.02.87-3.87,1.95-5.42"/>
    <path class="cls-5" d="M36.47,20.6c1.65,2.12,2.55,4.84,2.31,7.73-.19,2.23-1.02,4.26-2.31,5.9"/>
    <path class="cls-3" d="M14.97,36.99c-2.27-3.01-3.49-6.84-3.15-10.89.25-3.07,1.36-5.86,3.07-8.16"/>
    <path class="cls-3" d="M40.14,17.55c2.42,3.05,3.72,6.99,3.37,11.18-.26,3.14-1.42,5.99-3.2,8.32"/>
    <path class="cls-2" d="M11.18,40.2c-3.11-3.97-4.79-9.08-4.34-14.5.33-4.03,1.8-7.69,4.06-10.71"/>
    <path class="cls-2" d="M43.74,14.56c3.15,3.98,4.85,9.11,4.4,14.57-.33,4.03-1.8,7.7-4.07,10.72"/>
  </g>
</svg>