<?xml version="1.0" encoding="UTF-8"?>
<svg xmlns="http://www.w3.org/2000/svg" xmlns:xlink="http://www.w3.org/1999/xlink" viewBox="0 0 11485.64 1150">
  <defs>
    <style>
      .cls-1, .cls-2, .cls-3, .cls-4, .cls-5 {
        stroke: #000;
      }

      .cls-1, .cls-2, .cls-3, .cls-4, .cls-5, .cls-6, .cls-7, .cls-8, .cls-9, .cls-10, .cls-11, .cls-12 {
        stroke-miterlimit: 10;
      }

      .cls-1, .cls-2, .cls-9 {
        fill: #ffcd67;
      }

      .cls-1, .cls-8 {
        stroke-width: 7px;
      }

      .cls-2, .cls-4, .cls-5, .cls-9, .cls-10, .cls-11, .cls-12 {
        stroke-width: 6px;
      }

      .cls-3 {
        fill: url(#radial-gradient-3);
        stroke-width: 5px;
      }

      .cls-4 {
        fill: #00686b;
      }

      .cls-13 {
        fill: #fff;
        font-family: BebasNeue, 'Bebas Neue';
        font-size: 400px;
      }

      .cls-14 {
        fill: #02435f;
      }

      .cls-5 {
        fill: url(#radial-gradient);
      }

      .cls-6 {
        fill: #662d91;
        stroke: #00324a;
      }

      .cls-7 {
        fill: #ada8e2;
        stroke-width: 4px;
      }

      .cls-7, .cls-12 {
        stroke: #231f20;
      }

      .cls-15 {
        letter-spacing: 0em;
      }

      .cls-8 {
        fill: none;
      }

      .cls-8, .cls-9, .cls-10, .cls-11 {
        stroke: #ada8e2;
      }

      .cls-16 {
        letter-spacing: -.01em;
      }

      .cls-10 {
        fill: #489ab7;
      }

      .cls-17 {
        letter-spacing: -.04em;
      }

      .cls-11 {
        fill: #503d8a;
      }

      .cls-12 {
        fill: url(#radial-gradient-2);
      }

      .cls-18 {
        letter-spacing: 0em;
      }
    </style>
    <radialGradient id="radial-gradient" cx="605.14" cy="607.4" fx="605.14" fy="607.4" r="127.54" gradientUnits="userSpaceOnUse">
      <stop offset="0" stop-color="#fff"/>
      <stop offset=".12" stop-color="#fffcf8"/>
      <stop offset=".28" stop-color="#fff6e5"/>
      <stop offset=".48" stop-color="#ffecc6"/>
      <stop offset=".7" stop-color="#ffdd9a"/>
      <stop offset=".92" stop-color="#ffcd67"/>
    </radialGradient>
    <radialGradient id="radial-gradient-2" cx="605.14" cy="608.91" fx="605.14" fy="608.91" r="286.45" gradientUnits="userSpaceOnUse">
      <stop offset="0" stop-color="#fff"/>
      <stop offset=".09" stop-color="#eceaf2"/>
      <stop offset=".42" stop-color="#a9a0c6"/>
      <stop offset=".69" stop-color="#796aa5"/>
      <stop offset=".89" stop-color="#5b4991"/>
      <stop offset="1" stop-color="#503d8a"/>
    </radialGradient>
    <radialGradient id="radial-gradient-3" cx="605.14" cy="608.27" fx="605.14" fy="608.27" r="127.54" gradientUnits="userSpaceOnUse">
      <stop offset="0" stop-color="#fff"/>
      <stop offset=".15" stop-color="#fffdfa"/>
      <stop offset=".32" stop-color="#fff9ed"/>
      <stop offset=".48" stop-color="#fff2d8"/>
      <stop offset=".66" stop-color="#ffe8b9"/>
      <stop offset=".83" stop-color="#ffdb93"/>
      <stop offset="1" stop-color="#ffcd67"/>
    </radialGradient>
  </defs>
  <g id="Layer_1">
    <rect class="cls-14" x="-1" y="-7.18" width="11500" height="1005.73"/>
    <text class="cls-13" transform="translate(1216.27 608.91)"><tspan x="0" y="0">N</tspan><tspan class="cls-17" x="170.79" y="0">a</tspan><tspan class="cls-15" x="318.4" y="0">tive S</tspan><tspan class="cls-16" x="1056.38" y="0">p</tspan><tspan class="cls-18" x="1201.99" y="0">a</tspan><tspan x="1364.39" y="0">ces</tspan></text>
    <g>
      <g>
        <g>
          <g>
            <line class="cls-8" x1="-6.64" y1="681.43" x2="11499.01" y2="689.59"/>
            <line class="cls-8" x1="-6.59" y1="724.77" x2="11499.07" y2="733.35"/>
            <line class="cls-8" x1="-6.64" y1="771.4" x2="11499.01" y2="771.4"/>
          </g>
          <g>
            <line class="cls-8" x1="-6.64" y1="891.96" x2="11499.01" y2="891.96"/>
            <line class="cls-8" x1="-5.65" y1="929.19" x2="11500" y2="929.19"/>
            <line class="cls-8" x1="-6.44" y1="995.97" x2="11499.21" y2="995.97"/>
          </g>
        </g>
        <g>
          <line class="cls-8" x1="46.8" y1="771.97" x2="46.8" y2="891.69"/>
          <line class="cls-8" x1="164.45" y1="771.97" x2="164.45" y2="891.69"/>
          <line class="cls-8" x1="282.1" y1="771.97" x2="282.1" y2="891.69"/>
          <line class="cls-8" x1="399.74" y1="771.97" x2="399.74" y2="891.69"/>
          <line class="cls-8" x1="517.39" y1="771.97" x2="517.39" y2="891.69"/>
          <line class="cls-8" x1="635.04" y1="771.97" x2="635.04" y2="891.69"/>
          <line class="cls-8" x1="752.69" y1="771.97" x2="752.69" y2="891.69"/>
          <line class="cls-8" x1="870.34" y1="771.97" x2="870.34" y2="891.69"/>
          <line class="cls-8" x1="987.98" y1="771.97" x2="987.98" y2="891.69"/>
          <line class="cls-8" x1="1105.63" y1="771.97" x2="1105.63" y2="891.69"/>
          <line class="cls-8" x1="1223.28" y1="771.97" x2="1223.28" y2="891.69"/>
          <line class="cls-8" x1="1340.93" y1="771.97" x2="1340.93" y2="891.69"/>
          <line class="cls-8" x1="1458.57" y1="771.97" x2="1458.57" y2="891.69"/>
          <line class="cls-8" x1="1576.22" y1="771.97" x2="1576.22" y2="891.69"/>
          <line class="cls-8" x1="1693.87" y1="771.97" x2="1693.87" y2="891.69"/>
          <line class="cls-8" x1="1811.52" y1="772.65" x2="1811.52" y2="888.06"/>
          <line class="cls-8" x1="1929.16" y1="773.26" x2="1929.16" y2="888.67"/>
          <line class="cls-8" x1="2046.81" y1="775.1" x2="2046.81" y2="891.69"/>
          <line class="cls-8" x1="2164.46" y1="775.1" x2="2164.46" y2="891.69"/>
          <line class="cls-8" x1="2282.11" y1="773.37" x2="2282.11" y2="888.78"/>
          <line class="cls-8" x1="2399.76" y1="774.13" x2="2399.76" y2="889.54"/>
          <line class="cls-8" x1="2517.4" y1="770.2" x2="2517.4" y2="889.93"/>
          <line class="cls-8" x1="2635.05" y1="775.1" x2="2635.05" y2="891.69"/>
          <line class="cls-8" x1="2752.7" y1="775.1" x2="2752.7" y2="891.69"/>
          <line class="cls-8" x1="2870.35" y1="772.75" x2="2870.35" y2="891.69"/>
          <line class="cls-8" x1="2987.99" y1="772.75" x2="2987.99" y2="891.69"/>
          <line class="cls-8" x1="3105.64" y1="772.75" x2="3105.64" y2="891.69"/>
          <line class="cls-8" x1="3223.29" y1="773.96" x2="3223.29" y2="891.69"/>
          <line class="cls-8" x1="3340.94" y1="773.96" x2="3340.94" y2="891.69"/>
          <line class="cls-8" x1="3458.58" y1="773.96" x2="3458.58" y2="891.69"/>
          <line class="cls-8" x1="3576.23" y1="772.75" x2="3576.23" y2="891.69"/>
          <line class="cls-8" x1="3693.88" y1="771.97" x2="3693.88" y2="891.69"/>
          <line class="cls-8" x1="3811.53" y1="772.75" x2="3811.53" y2="891.69"/>
          <line class="cls-8" x1="3929.18" y1="772.75" x2="3929.18" y2="891.69"/>
          <line class="cls-8" x1="4046.82" y1="772.75" x2="4046.82" y2="891.69"/>
          <line class="cls-8" x1="4164.47" y1="772.75" x2="4164.47" y2="891.69"/>
          <line class="cls-8" x1="4282.12" y1="773.96" x2="4282.12" y2="891.69"/>
          <line class="cls-8" x1="4399.77" y1="773.96" x2="4399.77" y2="891.69"/>
          <line class="cls-8" x1="4517.41" y1="773.96" x2="4517.41" y2="891.69"/>
          <line class="cls-8" x1="4635.06" y1="775.4" x2="4635.06" y2="889.36"/>
          <line class="cls-8" x1="4752.71" y1="776.61" x2="4752.71" y2="889.36"/>
          <line class="cls-8" x1="4870.36" y1="775.93" x2="4870.36" y2="889.89"/>
          <line class="cls-8" x1="4988" y1="775.93" x2="4988" y2="891.69"/>
          <line class="cls-8" x1="5105.65" y1="771.97" x2="5105.65" y2="891.69"/>
          <line class="cls-8" x1="5223.3" y1="771.97" x2="5223.3" y2="891.69"/>
          <line class="cls-8" x1="5340.95" y1="771.97" x2="5340.95" y2="891.69"/>
          <line class="cls-8" x1="5458.59" y1="771.97" x2="5458.59" y2="891.69"/>
          <line class="cls-8" x1="5576.24" y1="771.97" x2="5576.24" y2="891.69"/>
          <line class="cls-8" x1="5693.89" y1="771.97" x2="5693.89" y2="891.69"/>
          <line class="cls-8" x1="5811.54" y1="771.97" x2="5811.54" y2="891.69"/>
          <line class="cls-8" x1="5929.19" y1="771.97" x2="5929.19" y2="891.69"/>
          <line class="cls-8" x1="6046.83" y1="771.97" x2="6046.83" y2="891.69"/>
          <line class="cls-8" x1="6164.48" y1="771.97" x2="6164.48" y2="891.69"/>
          <line class="cls-8" x1="6282.13" y1="771.97" x2="6282.13" y2="891.69"/>
          <line class="cls-8" x1="6399.78" y1="771.97" x2="6399.78" y2="891.69"/>
          <line class="cls-8" x1="6517.42" y1="771.97" x2="6517.42" y2="891.69"/>
          <line class="cls-8" x1="6635.07" y1="771.97" x2="6635.07" y2="891.69"/>
          <line class="cls-8" x1="6752.72" y1="771.97" x2="6752.72" y2="891.69"/>
          <line class="cls-8" x1="6870.37" y1="771.97" x2="6870.37" y2="891.69"/>
          <line class="cls-8" x1="6988.01" y1="771.97" x2="6988.01" y2="891.69"/>
          <line class="cls-8" x1="7105.66" y1="771.97" x2="7105.66" y2="891.69"/>
          <line class="cls-8" x1="7223.31" y1="771.97" x2="7223.31" y2="891.69"/>
          <line class="cls-8" x1="7340.96" y1="771.97" x2="7340.96" y2="891.69"/>
          <line class="cls-8" x1="7458.61" y1="771.97" x2="7458.61" y2="891.69"/>
          <line class="cls-8" x1="7576.25" y1="771.97" x2="7576.25" y2="891.69"/>
          <line class="cls-8" x1="7693.9" y1="771.97" x2="7693.9" y2="891.69"/>
          <line class="cls-8" x1="7811.55" y1="771.97" x2="7811.55" y2="891.69"/>
          <line class="cls-8" x1="7929.2" y1="771.97" x2="7929.2" y2="891.69"/>
          <line class="cls-8" x1="8046.84" y1="771.97" x2="8046.84" y2="891.69"/>
          <line class="cls-8" x1="8164.49" y1="771.97" x2="8164.49" y2="891.69"/>
          <line class="cls-8" x1="8282.14" y1="771.97" x2="8282.14" y2="891.69"/>
          <line class="cls-8" x1="8399.79" y1="771.97" x2="8399.79" y2="891.69"/>
          <line class="cls-8" x1="8517.43" y1="771.97" x2="8517.43" y2="891.69"/>
          <line class="cls-8" x1="8635.08" y1="771.97" x2="8635.08" y2="891.69"/>
          <line class="cls-8" x1="8752.73" y1="771.97" x2="8752.73" y2="891.69"/>
          <line class="cls-8" x1="8870.38" y1="771.97" x2="8870.38" y2="891.69"/>
          <line class="cls-8" x1="8988.02" y1="771.97" x2="8988.02" y2="891.69"/>
          <line class="cls-8" x1="9105.67" y1="771.97" x2="9105.67" y2="891.69"/>
          <line class="cls-8" x1="9223.32" y1="771.97" x2="9223.32" y2="891.69"/>
          <line class="cls-8" x1="9340.97" y1="771.97" x2="9340.97" y2="891.69"/>
          <line class="cls-8" x1="9458.62" y1="771.97" x2="9458.62" y2="891.69"/>
          <line class="cls-8" x1="9576.26" y1="771.97" x2="9576.26" y2="891.69"/>
          <line class="cls-8" x1="9693.91" y1="771.97" x2="9693.91" y2="891.69"/>
          <line class="cls-8" x1="9811.56" y1="771.97" x2="9811.56" y2="891.69"/>
          <line class="cls-8" x1="9929.21" y1="771.97" x2="9929.21" y2="891.69"/>
          <line class="cls-8" x1="10046.85" y1="771.97" x2="10046.85" y2="891.69"/>
          <line class="cls-8" x1="10164.5" y1="771.97" x2="10164.5" y2="891.69"/>
          <line class="cls-8" x1="10282.15" y1="771.97" x2="10282.15" y2="891.69"/>
          <line class="cls-8" x1="10399.8" y1="771.97" x2="10399.8" y2="891.69"/>
          <line class="cls-8" x1="10517.44" y1="771.97" x2="10517.44" y2="891.69"/>
          <line class="cls-8" x1="10635.09" y1="771.97" x2="10635.09" y2="891.69"/>
          <line class="cls-8" x1="10752.74" y1="771.97" x2="10752.74" y2="891.69"/>
          <line class="cls-8" x1="10870.39" y1="771.97" x2="10870.39" y2="891.69"/>
          <line class="cls-8" x1="10988.04" y1="771.97" x2="10988.04" y2="891.69"/>
          <line class="cls-8" x1="11105.68" y1="771.97" x2="11105.68" y2="891.69"/>
          <line class="cls-8" x1="11223.33" y1="771.97" x2="11223.33" y2="891.69"/>
          <line class="cls-8" x1="11340.98" y1="771.97" x2="11340.98" y2="891.69"/>
          <line class="cls-8" x1="11458.63" y1="773.2" x2="11458.63" y2="891.96"/>
        </g>
      </g>
      <line class="cls-8" x1="-7.09" y1="964.5" x2="11498.56" y2="964.5"/>
    </g>
  </g>
  <g id="Layer_2">
    <g>
      <circle class="cls-11" cx="605.25" cy="608.91" r="519.94"/>
      <circle class="cls-10" cx="605.25" cy="608.91" r="483.16"/>
    </g>
    <circle class="cls-4" cx="605.25" cy="608.91" r="308"/>
    <g>
      <line class="cls-9" x1="585.63" y1="88.43" x2="621.36" y2="125.64"/>
      <line class="cls-9" x1="540.34" y1="92.12" x2="579.18" y2="126.08"/>
      <line class="cls-9" x1="495.55" y1="99.74" x2="537.2" y2="130.19"/>
      <line class="cls-9" x1="451.59" y1="111.24" x2="495.73" y2="137.94"/>
      <line class="cls-9" x1="408.8" y1="126.53" x2="455.1" y2="149.28"/>
      <line class="cls-9" x1="367.51" y1="145.49" x2="415.62" y2="164.11"/>
      <line class="cls-9" x1="328.02" y1="167.97" x2="377.57" y2="182.33"/>
      <line class="cls-9" x1="290.65" y1="193.81" x2="341.26" y2="203.8"/>
      <line class="cls-9" x1="255.67" y1="222.81" x2="306.96" y2="228.35"/>
      <line class="cls-9" x1="223.34" y1="254.75" x2="274.92" y2="255.8"/>
      <line class="cls-9" x1="193.93" y1="289.38" x2="245.4" y2="285.93"/>
      <line class="cls-9" x1="167.65" y1="326.45" x2="218.62" y2="318.52"/>
      <line class="cls-9" x1="144.69" y1="365.66" x2="194.79" y2="353.32"/>
      <line class="cls-9" x1="125.25" y1="406.73" x2="174.07" y2="390.07"/>
      <line class="cls-9" x1="109.45" y1="449.33" x2="156.64" y2="428.48"/>
      <line class="cls-9" x1="97.43" y1="493.15" x2="142.62" y2="468.27"/>
      <line class="cls-9" x1="89.28" y1="537.85" x2="132.13" y2="509.12"/>
      <line class="cls-9" x1="85.05" y1="583.09" x2="125.23" y2="550.74"/>
      <line class="cls-9" x1="84.78" y1="628.53" x2="121.99" y2="592.8"/>
      <line class="cls-9" x1="88.47" y1="673.82" x2="122.42" y2="634.98"/>
      <line class="cls-9" x1="96.09" y1="718.61" x2="126.53" y2="676.96"/>
      <line class="cls-9" x1="107.59" y1="762.57" x2="134.28" y2="718.43"/>
      <line class="cls-9" x1="122.87" y1="805.36" x2="145.62" y2="759.06"/>
      <line class="cls-9" x1="141.83" y1="846.65" x2="160.46" y2="798.55"/>
      <line class="cls-9" x1="164.32" y1="886.14" x2="178.68" y2="836.59"/>
      <line class="cls-9" x1="190.16" y1="923.52" x2="200.14" y2="872.9"/>
      <line class="cls-9" x1="219.16" y1="958.5" x2="224.69" y2="907.21"/>
      <line class="cls-9" x1="251.09" y1="990.82" x2="252.14" y2="939.24"/>
      <line class="cls-9" x1="285.73" y1="1020.23" x2="282.28" y2="968.76"/>
      <line class="cls-9" x1="322.79" y1="1046.51" x2="314.87" y2="995.54"/>
      <line class="cls-9" x1="362.01" y1="1069.47" x2="349.67" y2="1019.37"/>
      <line class="cls-9" x1="403.07" y1="1088.91" x2="386.42" y2="1040.09"/>
      <line class="cls-9" x1="445.68" y1="1104.71" x2="424.83" y2="1057.52"/>
      <line class="cls-9" x1="489.5" y1="1116.73" x2="464.61" y2="1071.54"/>
      <line class="cls-9" x1="534.2" y1="1124.89" x2="505.47" y2="1082.04"/>
      <line class="cls-9" x1="579.44" y1="1129.12" x2="547.09" y2="1088.93"/>
      <line class="cls-9" x1="624.88" y1="1129.39" x2="589.14" y2="1092.17"/>
      <line class="cls-9" x1="670.16" y1="1125.7" x2="631.33" y2="1091.74"/>
      <line class="cls-9" x1="714.96" y1="1118.07" x2="673.31" y2="1087.63"/>
      <line class="cls-9" x1="758.92" y1="1106.57" x2="714.77" y2="1079.88"/>
      <line class="cls-9" x1="801.71" y1="1091.29" x2="755.4" y2="1068.54"/>
      <line class="cls-9" x1="843" y1="1072.33" x2="794.89" y2="1053.7"/>
      <line class="cls-9" x1="882.49" y1="1049.84" x2="832.94" y2="1035.48"/>
      <line class="cls-9" x1="919.86" y1="1024" x2="869.25" y2="1014.02"/>
      <line class="cls-9" x1="954.84" y1="995" x2="903.55" y2="989.47"/>
      <line class="cls-9" x1="987.16" y1="963.07" x2="935.58" y2="962.02"/>
      <line class="cls-9" x1="1016.58" y1="928.43" x2="965.1" y2="931.89"/>
      <line class="cls-9" x1="1042.86" y1="891.37" x2="991.88" y2="899.29"/>
      <line class="cls-9" x1="1065.81" y1="852.15" x2="1015.72" y2="864.49"/>
      <line class="cls-9" x1="1085.26" y1="811.09" x2="1036.43" y2="827.74"/>
      <line class="cls-9" x1="1101.05" y1="768.48" x2="1053.87" y2="789.33"/>
      <line class="cls-9" x1="1113.08" y1="724.66" x2="1067.88" y2="749.55"/>
      <line class="cls-9" x1="1121.23" y1="679.96" x2="1078.38" y2="708.69"/>
      <line class="cls-9" x1="1125.46" y1="634.72" x2="1085.28" y2="667.07"/>
      <line class="cls-9" x1="1125.73" y1="589.29" x2="1088.52" y2="625.02"/>
      <line class="cls-9" x1="1122.04" y1="544" x2="1088.09" y2="582.84"/>
      <line class="cls-9" x1="1114.42" y1="499.2" x2="1083.98" y2="540.85"/>
      <line class="cls-9" x1="1102.92" y1="455.24" x2="1076.22" y2="499.39"/>
      <line class="cls-9" x1="1087.63" y1="412.45" x2="1064.89" y2="458.76"/>
      <line class="cls-9" x1="1068.67" y1="371.16" x2="1050.05" y2="419.27"/>
      <line class="cls-9" x1="1046.19" y1="331.68" x2="1031.83" y2="381.22"/>
      <line class="cls-9" x1="1020.35" y1="294.3" x2="1010.36" y2="344.91"/>
      <line class="cls-9" x1="991.35" y1="259.32" x2="985.81" y2="310.61"/>
      <line class="cls-9" x1="959.41" y1="227" x2="958.37" y2="278.58"/>
      <line class="cls-9" x1="924.78" y1="197.59" x2="928.23" y2="249.06"/>
      <line class="cls-9" x1="887.71" y1="171.3" x2="895.64" y2="222.28"/>
      <line class="cls-9" x1="848.5" y1="148.35" x2="860.84" y2="198.44"/>
      <line class="cls-9" x1="807.43" y1="128.9" x2="824.09" y2="177.73"/>
      <line class="cls-9" x1="764.83" y1="113.11" x2="785.68" y2="160.29"/>
      <line class="cls-9" x1="721.01" y1="101.09" x2="745.89" y2="146.28"/>
      <line class="cls-9" x1="676.31" y1="92.93" x2="705.04" y2="135.78"/>
      <line class="cls-9" x1="631.07" y1="88.7" x2="663.42" y2="128.88"/>
    </g>
    <g>
      <circle class="cls-6" cx="604.61" cy="154.14" r="6.2"/>
      <circle class="cls-6" cx="588.74" cy="154.44" r="6.2"/>
      <circle class="cls-6" cx="572.89" cy="155.29" r="6.2"/>
      <circle class="cls-6" cx="557.08" cy="156.7" r="6.2"/>
      <circle class="cls-6" cx="541.33" cy="158.66" r="6.2"/>
      <circle class="cls-6" cx="525.65" cy="161.16" r="6.2"/>
      <circle class="cls-6" cx="510.08" cy="164.21" r="6.2"/>
      <circle class="cls-6" cx="494.61" cy="167.8" r="6.2"/>
      <circle class="cls-6" cx="479.29" cy="171.93" r="6.2"/>
      <circle class="cls-6" cx="464.11" cy="176.6" r="6.2"/>
      <circle class="cls-6" cx="449.11" cy="181.79" r="6.2"/>
      <circle class="cls-6" cx="434.3" cy="187.49" r="6.2"/>
      <circle class="cls-6" cx="419.7" cy="193.72" r="6.2"/>
      <circle class="cls-6" cx="405.32" cy="200.45" r="6.2"/>
      <circle class="cls-6" cx="391.19" cy="207.67" r="6.2"/>
      <circle class="cls-6" cx="377.32" cy="215.39" r="6.2"/>
      <circle class="cls-6" cx="363.72" cy="223.58" r="6.2"/>
      <circle class="cls-6" cx="350.42" cy="232.25" r="6.2"/>
      <circle class="cls-6" cx="337.43" cy="241.37" r="6.2"/>
      <circle class="cls-6" cx="324.77" cy="250.94" r="6.2"/>
      <circle class="cls-6" cx="312.44" cy="260.95" r="6.2"/>
      <circle class="cls-6" cx="300.48" cy="271.38" r="6.2"/>
      <circle class="cls-6" cx="288.89" cy="282.22" r="6.2"/>
      <circle class="cls-6" cx="277.68" cy="293.46" r="6.2"/>
      <circle class="cls-6" cx="266.87" cy="305.08" r="6.2"/>
      <circle class="cls-6" cx="256.47" cy="317.08" r="6.2"/>
      <circle class="cls-6" cx="246.5" cy="329.43" r="6.2"/>
      <circle class="cls-6" cx="236.96" cy="342.12" r="6.2"/>
      <circle class="cls-6" cx="227.88" cy="355.14" r="6.2"/>
      <circle class="cls-6" cx="219.25" cy="368.46" r="6.2"/>
      <circle class="cls-6" cx="211.09" cy="382.08" r="6.2"/>
      <circle class="cls-6" cx="203.42" cy="395.97" r="6.2"/>
      <circle class="cls-6" cx="196.23" cy="410.13" r="6.2"/>
      <circle class="cls-6" cx="189.54" cy="424.52" r="6.2"/>
      <circle class="cls-6" cx="183.36" cy="439.14" r="6.2"/>
      <circle class="cls-6" cx="177.69" cy="453.97" r="6.2"/>
      <circle class="cls-6" cx="172.55" cy="468.99" r="6.2"/>
      <circle class="cls-6" cx="167.93" cy="484.17" r="6.2"/>
      <circle class="cls-6" cx="163.84" cy="499.51" r="6.2"/>
      <circle class="cls-6" cx="160.29" cy="514.98" r="6.2"/>
      <circle class="cls-6" cx="157.28" cy="530.57" r="6.2"/>
      <circle class="cls-6" cx="154.82" cy="546.25" r="6.2"/>
      <circle class="cls-6" cx="152.91" cy="562.01" r="6.2"/>
      <circle class="cls-6" cx="151.55" cy="577.82" r="6.2"/>
      <circle class="cls-6" cx="150.74" cy="593.68" r="6.2"/>
      <circle class="cls-6" cx="150.49" cy="609.55" r="6.2"/>
      <circle class="cls-6" cx="150.79" cy="625.42" r="6.2"/>
      <circle class="cls-6" cx="151.64" cy="641.27" r="6.2"/>
      <circle class="cls-6" cx="153.04" cy="657.08" r="6.2"/>
      <circle class="cls-6" cx="155" cy="672.83" r="6.2"/>
      <circle class="cls-6" cx="157.51" cy="688.51" r="6.2"/>
      <circle class="cls-6" cx="160.56" cy="704.08" r="6.2"/>
      <circle class="cls-6" cx="164.15" cy="719.55" r="6.2"/>
      <circle class="cls-6" cx="168.28" cy="734.87" r="6.2"/>
      <circle class="cls-6" cx="172.94" cy="750.05" r="6.2"/>
      <circle class="cls-6" cx="178.13" cy="765.05" r="6.2"/>
      <circle class="cls-6" cx="183.84" cy="779.86" r="6.2"/>
      <circle class="cls-6" cx="190.06" cy="794.46" r="6.2"/>
      <circle class="cls-6" cx="196.79" cy="808.84" r="6.2"/>
      <circle class="cls-6" cx="204.02" cy="822.97" r="6.2"/>
      <circle class="cls-6" cx="211.73" cy="836.85" r="6.2"/>
      <circle class="cls-6" cx="219.93" cy="850.44" r="6.2"/>
      <circle class="cls-6" cx="228.59" cy="863.74" r="6.2"/>
      <circle class="cls-6" cx="237.72" cy="876.73" r="6.2"/>
      <circle class="cls-6" cx="247.29" cy="889.39" r="6.2"/>
      <circle class="cls-6" cx="257.29" cy="901.72" r="6.2"/>
      <circle class="cls-6" cx="267.72" cy="913.68" r="6.2"/>
      <circle class="cls-6" cx="278.57" cy="925.28" r="6.2"/>
      <circle class="cls-6" cx="289.81" cy="936.48" r="6.2"/>
      <circle class="cls-6" cx="301.43" cy="947.29" r="6.2"/>
      <circle class="cls-6" cx="313.43" cy="957.69" r="6.2"/>
      <circle class="cls-6" cx="325.78" cy="967.66" r="6.2"/>
      <circle class="cls-6" cx="338.47" cy="977.2" r="6.2"/>
      <circle class="cls-6" cx="351.48" cy="986.28" r="6.2"/>
      <circle class="cls-6" cx="364.81" cy="994.91" r="6.2"/>
      <circle class="cls-6" cx="378.42" cy="1003.07" r="6.2"/>
      <circle class="cls-6" cx="392.32" cy="1010.74" r="6.2"/>
      <circle class="cls-6" cx="406.47" cy="1017.93" r="6.2"/>
      <circle class="cls-6" cx="420.87" cy="1024.62" r="6.2"/>
      <circle class="cls-6" cx="435.49" cy="1030.8" r="6.2"/>
      <circle class="cls-6" cx="450.32" cy="1036.47" r="6.2"/>
      <circle class="cls-6" cx="465.33" cy="1041.61" r="6.2"/>
      <circle class="cls-6" cx="480.52" cy="1046.23" r="6.2"/>
      <circle class="cls-6" cx="495.86" cy="1050.32" r="6.2"/>
      <circle class="cls-6" cx="511.33" cy="1053.87" r="6.2"/>
      <circle class="cls-6" cx="526.91" cy="1056.88" r="6.2"/>
      <circle class="cls-6" cx="542.6" cy="1059.34" r="6.2"/>
      <circle class="cls-6" cx="558.35" cy="1061.25" r="6.2"/>
      <circle class="cls-6" cx="574.17" cy="1062.61" r="6.2"/>
      <circle class="cls-6" cx="590.02" cy="1063.42" r="6.2"/>
      <circle class="cls-6" cx="605.89" cy="1063.67" r="6.2"/>
      <circle class="cls-6" cx="621.76" cy="1063.38" r="6.2"/>
      <circle class="cls-6" cx="637.61" cy="1062.52" r="6.2"/>
      <circle class="cls-6" cx="653.43" cy="1061.12" r="6.2"/>
      <circle class="cls-6" cx="669.18" cy="1059.16" r="6.2"/>
      <circle class="cls-6" cx="684.85" cy="1056.65" r="6.2"/>
      <circle class="cls-6" cx="700.43" cy="1053.6" r="6.2"/>
      <circle class="cls-6" cx="715.89" cy="1050.01" r="6.2"/>
      <circle class="cls-6" cx="731.22" cy="1045.88" r="6.2"/>
      <circle class="cls-6" cx="746.39" cy="1041.22" r="6.2"/>
      <circle class="cls-6" cx="761.39" cy="1036.03" r="6.2"/>
      <circle class="cls-6" cx="776.21" cy="1030.32" r="6.2"/>
      <circle class="cls-6" cx="790.81" cy="1024.1" r="6.2"/>
      <circle class="cls-6" cx="805.19" cy="1017.37" r="6.2"/>
      <circle class="cls-6" cx="819.32" cy="1010.14" r="6.2"/>
      <circle class="cls-6" cx="833.19" cy="1002.43" r="6.2"/>
      <circle class="cls-6" cx="846.79" cy="994.23" r="6.2"/>
      <circle class="cls-6" cx="860.09" cy="985.57" r="6.2"/>
      <circle class="cls-6" cx="873.08" cy="976.45" r="6.2"/>
      <circle class="cls-6" cx="885.74" cy="966.87" r="6.2"/>
      <circle class="cls-6" cx="898.06" cy="956.87" r="6.2"/>
      <circle class="cls-6" cx="910.03" cy="946.44" r="6.2"/>
      <circle class="cls-6" cx="921.62" cy="935.6" r="6.2"/>
      <circle class="cls-6" cx="932.83" cy="924.35" r="6.2"/>
      <circle class="cls-6" cx="943.64" cy="912.73" r="6.2"/>
      <circle class="cls-6" cx="954.04" cy="900.74" r="6.2"/>
      <circle class="cls-6" cx="964.01" cy="888.39" r="6.2"/>
      <circle class="cls-6" cx="973.54" cy="875.7" r="6.2"/>
      <circle class="cls-6" cx="982.63" cy="862.68" r="6.2"/>
      <circle class="cls-6" cx="991.26" cy="849.35" r="6.2"/>
      <circle class="cls-6" cx="999.41" cy="835.74" r="6.2"/>
      <circle class="cls-6" cx="1007.09" cy="821.84" r="6.2"/>
      <circle class="cls-6" cx="1014.28" cy="807.69" r="6.2"/>
      <circle class="cls-6" cx="1020.96" cy="793.29" r="6.2"/>
      <circle class="cls-6" cx="1027.15" cy="778.67" r="6.2"/>
      <circle class="cls-6" cx="1032.81" cy="763.85" r="6.2"/>
      <circle class="cls-6" cx="1037.96" cy="748.83" r="6.2"/>
      <circle class="cls-6" cx="1042.58" cy="733.64" r="6.2"/>
      <circle class="cls-6" cx="1046.67" cy="718.3" r="6.2"/>
      <circle class="cls-6" cx="1050.22" cy="702.83" r="6.2"/>
      <circle class="cls-6" cx="1053.22" cy="687.25" r="6.2"/>
      <circle class="cls-6" cx="1055.68" cy="671.57" r="6.2"/>
      <circle class="cls-6" cx="1057.6" cy="655.81" r="6.2"/>
      <circle class="cls-6" cx="1058.96" cy="639.99" r="6.2"/>
      <circle class="cls-6" cx="1059.77" cy="624.14" r="6.2"/>
      <circle class="cls-6" cx="1060.02" cy="608.27" r="6.2"/>
      <circle class="cls-6" cx="1059.72" cy="592.4" r="6.2"/>
      <circle class="cls-6" cx="1058.87" cy="576.55" r="6.2"/>
      <circle class="cls-6" cx="1057.46" cy="560.74" r="6.2"/>
      <circle class="cls-6" cx="1055.51" cy="544.98" r="6.2"/>
      <circle class="cls-6" cx="1053" cy="529.31" r="6.2"/>
      <circle class="cls-6" cx="1049.95" cy="513.73" r="6.2"/>
      <circle class="cls-6" cx="1046.36" cy="498.27" r="6.2"/>
      <circle class="cls-6" cx="1042.23" cy="482.94" r="6.2"/>
      <circle class="cls-6" cx="1037.56" cy="467.77" r="6.2"/>
      <circle class="cls-6" cx="1032.38" cy="452.77" r="6.2"/>
      <circle class="cls-6" cx="1026.67" cy="437.96" r="6.2"/>
      <circle class="cls-6" cx="1020.44" cy="423.35" r="6.2"/>
      <circle class="cls-6" cx="1013.71" cy="408.98" r="6.2"/>
      <circle class="cls-6" cx="1006.49" cy="394.84" r="6.2"/>
      <circle class="cls-6" cx="998.77" cy="380.97" r="6.2"/>
      <circle class="cls-6" cx="990.58" cy="367.38" r="6.2"/>
      <circle class="cls-6" cx="981.91" cy="354.07" r="6.2"/>
      <circle class="cls-6" cx="972.79" cy="341.08" r="6.2"/>
      <circle class="cls-6" cx="963.22" cy="328.42" r="6.2"/>
      <circle class="cls-6" cx="953.21" cy="316.1" r="6.2"/>
      <circle class="cls-6" cx="942.78" cy="304.13" r="6.2"/>
      <circle class="cls-6" cx="931.94" cy="292.54" r="6.2"/>
      <circle class="cls-6" cx="920.7" cy="281.33" r="6.2"/>
      <circle class="cls-6" cx="909.08" cy="270.52" r="6.2"/>
      <circle class="cls-6" cx="897.08" cy="260.12" r="6.2"/>
      <circle class="cls-6" cx="884.73" cy="250.15" r="6.2"/>
      <circle class="cls-6" cx="872.04" cy="240.62" r="6.2"/>
      <circle class="cls-6" cx="859.03" cy="231.53" r="6.2"/>
      <circle class="cls-6" cx="845.7" cy="222.9" r="6.2"/>
      <circle class="cls-6" cx="832.08" cy="214.75" r="6.2"/>
      <circle class="cls-6" cx="818.19" cy="207.07" r="6.2"/>
      <circle class="cls-6" cx="804.04" cy="199.89" r="6.2"/>
      <circle class="cls-6" cx="789.64" cy="193.2" r="6.2"/>
      <circle class="cls-6" cx="775.02" cy="187.02" r="6.2"/>
      <circle class="cls-6" cx="760.19" cy="181.35" r="6.2"/>
      <circle class="cls-6" cx="745.18" cy="176.2" r="6.2"/>
      <circle class="cls-6" cx="729.99" cy="171.58" r="6.2"/>
      <circle class="cls-6" cx="714.65" cy="167.49" r="6.2"/>
      <circle class="cls-6" cx="699.18" cy="163.95" r="6.2"/>
      <circle class="cls-6" cx="683.59" cy="160.94" r="6.2"/>
      <circle class="cls-6" cx="667.91" cy="158.48" r="6.2"/>
      <circle class="cls-6" cx="652.15" cy="156.57" r="6.2"/>
      <circle class="cls-6" cx="636.34" cy="155.2" r="6.2"/>
      <circle class="cls-6" cx="620.49" cy="154.4" r="6.2"/>
    </g>
    <g>
      <circle class="cls-1" cx="605.15" cy="230.97" r="22.72"/>
      <circle class="cls-1" cx="383.02" cy="303.21" r="22.72"/>
      <circle class="cls-1" cx="245.78" cy="492.22" r="22.72"/>
      <circle class="cls-1" cx="245.84" cy="725.8" r="22.72"/>
      <circle class="cls-1" cx="383.19" cy="914.73" r="22.72"/>
      <circle class="cls-1" cx="605.36" cy="986.85" r="22.72"/>
      <circle class="cls-1" cx="827.49" cy="914.61" r="22.72"/>
      <circle class="cls-1" cx="964.73" cy="725.6" r="22.72"/>
      <circle class="cls-1" cx="964.66" cy="492.02" r="22.72"/>
      <circle class="cls-1" cx="827.32" cy="303.09" r="22.72"/>
    </g>
    <path class="cls-5" d="M605.14,734.94c70.44,0,127.54-57.1,127.54-127.54s-57.1-127.54-127.54-127.54-127.54,57.1-127.54,127.54,57.1,127.54,127.54,127.54ZM619.49,537.8l.08.13,6.8,11.76c1.88,3.26,3.94,6.44,6.11,9.47,8.32,11.57,18.94,21.68,30.7,29.22l10.58,6.79h-.14l-39.45-.03c-8.38-1.01-14.69-8.12-14.69-16.56v-40.78ZM617.36,638.16c0-8.43,6.31-15.55,14.69-16.56h0s.43-.03.43-.03h39.15l-.12.08-10.47,6.71c-11.76,7.54-22.38,17.65-30.7,29.22-2.17,3.01-4.22,6.19-6.11,9.47l-6.87,11.88v-40.77ZM537.59,595.08l10.47-6.71c11.76-7.54,22.38-17.64,30.7-29.22,2.17-3.02,4.23-6.21,6.11-9.47l6.87-11.89v40.78c0,8.43-6.31,15.55-14.69,16.56l-.22.03h-39.24s-.14,0-.14,0l.12-.08ZM537.61,621.57l39.45.03c8.37,1,14.69,8.12,14.69,16.56v40.77l-.08-.13-6.8-11.75c-1.89-3.26-3.94-6.45-6.11-9.47-8.33-11.58-18.95-21.68-30.7-29.22l-10.58-6.79h.14Z"/>
    <circle class="cls-12" cx="605.14" cy="608.91" r="286.45"/>
    <g>
      <path class="cls-2" d="M751.89,600.27l4.77-2.58c20.55-11.12,37.67-27.84,48.2-47.08,4.75-8.67,8.23-18.55,10.08-28.55-8.39-5.78-17.84-10.29-27.32-13.06-21.05-6.15-44.98-5.87-67.38.8l-4.28,1.27c10.63,12.22,19.12,25.98,25.22,40.89,6.29,15.39,9.89,31.64,10.69,48.32Z"/>
      <path class="cls-2" d="M740.03,665.63c-6.43,14.84-15.23,28.47-26.17,40.5l6.39,1.9c22.4,6.67,46.32,6.95,67.38.8,9.49-2.77,18.94-7.29,27.32-13.06-1.85-10.01-5.33-19.89-10.08-28.56-10.54-19.23-27.65-35.95-48.2-47.08l-4.95-2.68c-1.13,16.68-5.07,32.89-11.69,48.18Z"/>
      <path class="cls-2" d="M703.15,498.04l1.23-4.13c6.66-22.4,6.95-46.32.8-67.38-2.77-9.49-7.29-18.93-13.06-27.32-10.01,1.85-19.89,5.33-28.56,10.08-19.24,10.54-35.95,27.66-47.08,48.2l-1.78,3.29c16.6,1.07,32.76,4.92,48.01,11.44,14.8,6.33,28.41,15.01,40.45,25.81Z"/>
      <path class="cls-2" d="M469.11,551.86c6.11-14.91,14.6-28.65,25.23-40.86l-4.1-1.22c-22.4-6.67-46.33-6.95-67.38-.8-9.48,2.77-18.93,7.28-27.32,13.06,1.85,10.01,5.33,19.88,10.08,28.55,10.54,19.24,27.66,35.96,48.2,47.08l4.55,2.46c.81-16.66,4.42-32.91,10.72-48.29Z"/>
      <path class="cls-2" d="M704.38,723.91l-1.94-6.52c-12.19,10.79-25.94,19.43-40.88,25.66-15.41,6.44-31.71,10.15-48.44,11.05l3.36,6.21c11.12,20.55,27.84,37.67,47.08,48.2,8.68,4.75,18.55,8.24,28.56,10.08,5.77-8.39,10.29-17.83,13.06-27.32,6.15-21.05,5.87-44.98-.8-67.38Z"/>
      <path class="cls-2" d="M458.56,617.58l-4.72,2.56c-20.55,11.12-37.67,27.84-48.2,47.08-4.75,8.67-8.24,18.55-10.08,28.56,8.39,5.78,17.83,10.29,27.32,13.06,21.05,6.16,44.98,5.87,67.38-.8l6.21-1.85c-10.93-12.02-19.74-25.63-26.18-40.46-6.63-15.28-10.57-31.48-11.72-48.15Z"/>
      <path class="cls-2" d="M507.31,497.88c12.05-10.78,25.67-19.44,40.48-25.74,15.26-6.49,31.41-10.31,48.02-11.36l-1.78-3.28c-11.12-20.55-27.84-37.67-47.08-48.2-8.67-4.75-18.54-8.23-28.55-10.08-5.77,8.39-10.29,17.83-13.06,27.32-6.15,21.05-5.87,44.98.8,67.38l1.18,3.97Z"/>
      <path class="cls-2" d="M508.02,717.56l-1.89,6.35c-6.66,22.4-6.95,46.33-.8,67.38,2.77,9.49,7.29,18.93,13.06,27.32,10.01-1.84,19.88-5.33,28.55-10.08,19.24-10.54,35.96-27.66,47.08-48.2l3.35-6.19c-16.73-.87-33.04-4.57-48.45-10.98-14.94-6.21-28.71-14.82-40.91-25.59Z"/>
    </g>
    <path class="cls-3" d="M605.14,735.81c70.44,0,127.54-57.1,127.54-127.54s-57.1-127.54-127.54-127.54-127.54,57.1-127.54,127.54,57.1,127.54,127.54,127.54Z"/>
    <g>
      <path class="cls-7" d="M619.49,537.8l.08.13,6.8,11.76c1.88,3.26,3.94,6.44,6.11,9.47,8.32,11.57,18.94,21.68,30.7,29.22l10.58,6.79h-.14l-39.45-.03c-8.38-1.01-14.69-8.12-14.69-16.56v-40.78Z"/>
      <path class="cls-7" d="M617.36,638.16c0-8.43,6.31-15.55,14.69-16.56h0s.43-.03.43-.03h39.15l-.12.08-10.47,6.71c-11.76,7.54-22.38,17.65-30.7,29.22-2.17,3.01-4.22,6.19-6.11,9.47l-6.87,11.88v-40.77Z"/>
      <path class="cls-7" d="M537.59,595.08l10.47-6.71c11.76-7.54,22.38-17.64,30.7-29.22,2.17-3.02,4.23-6.21,6.11-9.47l6.87-11.89v40.78c0,8.43-6.31,15.55-14.69,16.56l-.22.03h-39.24s-.14,0-.14,0l.12-.08Z"/>
      <path class="cls-7" d="M537.61,621.57l39.45.03c8.37,1,14.69,8.12,14.69,16.56v40.77l-.08-.13-6.8-11.75c-1.89-3.26-3.94-6.45-6.11-9.47-8.33-11.58-18.95-21.68-30.7-29.22l-10.58-6.79h.14Z"/>
    </g>
  </g>
</svg>