<?xml version="1.0" encoding="UTF-8"?>
<svg id="Layer_1" xmlns="http://www.w3.org/2000/svg" viewBox="0 0 1198.14 1198.82">
  <defs>
    <style>
      .cls-1 {
        fill: #02435f;
      }

      .cls-2 {
        fill: none;
        stroke: #000;
        stroke-miterlimit: 10;
        stroke-width: 8px;
      }
    </style>
  </defs>
  <rect class="cls-1" x="-10.09" width="1208.22" height="1198.82"/>
  <g>
    <g>
      <g>
        <line class="cls-2" x1="-10.09" x2="1198.14" y2="5.51"/>
        <line class="cls-2" x1="-2.93" y1="53.04" x2="1204.13" y2="53.04"/>
        <line class="cls-2" x1="-2.93" y1="99.66" x2="1198.14" y2="99.66"/>
      </g>
      <g>
        <line class="cls-2" x1="-2.93" y1="201.58" x2="1200.53" y2="201.58"/>
        <line class="cls-2" x1="-2.93" y1="249.11" x2="1198.14" y2="249.11"/>
        <line class="cls-2" x1="-2.93" y1="296.64" x2="1200.53" y2="296.64"/>
      </g>
      <g>
        <g>
          <g>
            <line class="cls-2" x1="1194.76" y1="908.33" x2="724.59" y2="298.59"/>
            <line class="cls-2" x1="1152.69" y1="908.67" x2="682.51" y2="298.93"/>
            <line class="cls-2" x1="1110.62" y1="909.02" x2="640.44" y2="299.27"/>
            <line class="cls-2" x1="1068.54" y1="909.36" x2="598.37" y2="299.62"/>
          </g>
          <line class="cls-2" x1="1119.84" y1="297.96" x2="1119.84" y2="808.93"/>
        </g>
        <g>
          <line class="cls-2" x1="762.12" y1="347.15" x2="1121.26" y2="347.15"/>
          <line class="cls-2" x1="796.48" y1="387.7" x2="1121.26" y2="387.7"/>
          <line class="cls-2" x1="826.52" y1="428.25" x2="1121.26" y2="428.25"/>
          <line class="cls-2" x1="857.31" y1="468.8" x2="1121.26" y2="468.8"/>
          <line class="cls-2" x1="887.6" y1="509.35" x2="1121.26" y2="509.35"/>
          <line class="cls-2" x1="918.4" y1="549.9" x2="1121.26" y2="549.9"/>
          <line class="cls-2" x1="949.2" y1="590.45" x2="1121.26" y2="590.45"/>
          <line class="cls-2" x1="981.78" y1="631" x2="1121.26" y2="631"/>
          <line class="cls-2" x1="1010.8" y1="671.55" x2="1121.26" y2="671.55"/>
          <line class="cls-2" x1="1042.61" y1="712.1" x2="1121.26" y2="712.1"/>
          <line class="cls-2" x1="1075.26" y1="752.65" x2="1121.26" y2="752.65"/>
        </g>
      </g>
      <g>
        <g>
          <g>
            <line class="cls-2" x1="598.45" y1="299.62" x2="128.27" y2="909.36"/>
            <line class="cls-2" x1="556.38" y1="299.27" x2="86.2" y2="909.02"/>
            <line class="cls-2" x1="514.3" y1="298.93" x2="44.12" y2="908.67"/>
            <line class="cls-2" x1="472.23" y1="298.59" x2="2.05" y2="908.33"/>
          </g>
          <line class="cls-2" x1="78.3" y1="297.96" x2="78.3" y2="808.93"/>
        </g>
        <g>
          <line class="cls-2" x1="435.56" y1="347.15" x2="76.42" y2="347.15"/>
          <line class="cls-2" x1="401.2" y1="387.7" x2="76.42" y2="387.7"/>
          <line class="cls-2" x1="371.16" y1="428.25" x2="76.42" y2="428.25"/>
          <line class="cls-2" x1="340.36" y1="468.8" x2="76.42" y2="468.8"/>
          <line class="cls-2" x1="310.08" y1="509.35" x2="76.42" y2="509.35"/>
          <line class="cls-2" x1="279.28" y1="549.9" x2="76.42" y2="549.9"/>
          <line class="cls-2" x1="248.48" y1="590.45" x2="76.42" y2="590.45"/>
          <line class="cls-2" x1="215.9" y1="631" x2="76.42" y2="631"/>
          <line class="cls-2" x1="186.88" y1="671.55" x2="76.42" y2="671.55"/>
          <line class="cls-2" x1="155.07" y1="712.1" x2="76.42" y2="712.1"/>
          <line class="cls-2" x1="122.42" y1="752.65" x2="76.42" y2="752.65"/>
        </g>
      </g>
      <g>
        <g>
          <line class="cls-2" x1="522.37" y1="907.88" x2="522.37" y2="396.91"/>
          <line class="cls-2" x1="674.84" y1="907.88" x2="674.84" y2="396.91"/>
        </g>
        <g>
          <line class="cls-2" x1="166.41" y1="858.69" x2="523.78" y2="858.69"/>
          <line class="cls-2" x1="200.6" y1="818.14" x2="523.78" y2="818.14"/>
          <line class="cls-2" x1="230.49" y1="777.59" x2="523.78" y2="777.59"/>
          <line class="cls-2" x1="261.13" y1="737.04" x2="523.78" y2="737.04"/>
          <line class="cls-2" x1="291.27" y1="696.49" x2="523.78" y2="696.49"/>
          <line class="cls-2" x1="321.92" y1="655.94" x2="523.78" y2="655.94"/>
          <line class="cls-2" x1="352.57" y1="615.39" x2="523.78" y2="615.39"/>
          <line class="cls-2" x1="384.99" y1="574.84" x2="523.78" y2="574.84"/>
          <line class="cls-2" x1="418.96" y1="534.29" x2="523.78" y2="534.29"/>
          <line class="cls-2" x1="449.51" y1="493.74" x2="523.78" y2="493.74"/>
          <line class="cls-2" x1="478" y1="453.19" x2="523.78" y2="453.19"/>
        </g>
        <g>
          <line class="cls-2" x1="1030.34" y1="858.69" x2="672.97" y2="858.69"/>
          <line class="cls-2" x1="996.15" y1="818.14" x2="672.97" y2="818.14"/>
          <line class="cls-2" x1="966.26" y1="777.59" x2="672.97" y2="777.59"/>
          <line class="cls-2" x1="935.62" y1="737.04" x2="672.97" y2="737.04"/>
          <line class="cls-2" x1="905.48" y1="696.49" x2="672.97" y2="696.49"/>
          <line class="cls-2" x1="874.83" y1="655.94" x2="672.97" y2="655.94"/>
          <line class="cls-2" x1="844.18" y1="615.39" x2="672.97" y2="615.39"/>
          <line class="cls-2" x1="811.76" y1="574.84" x2="672.97" y2="574.84"/>
          <line class="cls-2" x1="780.4" y1="534.29" x2="672.97" y2="534.29"/>
          <line class="cls-2" x1="748.83" y1="493.74" x2="672.97" y2="493.74"/>
          <line class="cls-2" x1="718.75" y1="453.19" x2="672.97" y2="453.19"/>
        </g>
      </g>
      <g>
        <line class="cls-2" x1="-5.32" y1="908.95" x2="1207.54" y2="908.95"/>
        <line class="cls-2" x1="-10.09" y1="956.48" x2="1196.81" y2="956.48"/>
        <line class="cls-2" x1="-2.93" y1="1003.72" x2="1196.81" y2="1004.01"/>
      </g>
      <g>
        <line class="cls-2" x1="-2.93" y1="1105.02" x2="1196.81" y2="1105.02"/>
        <line class="cls-2" x1="-10.09" y1="1152.55" x2="1196.81" y2="1152.55"/>
        <line class="cls-2" x1="-10.09" y1="1198.82" x2="1199.57" y2="1199.83"/>
      </g>
    </g>
    <g>
      <line class="cls-2" x1="58.45" y1="99.66" x2="58.45" y2="203.56"/>
      <line class="cls-2" x1="167.01" y1="99.66" x2="167.01" y2="203.56"/>
      <line class="cls-2" x1="275.57" y1="99.66" x2="275.57" y2="203.56"/>
      <line class="cls-2" x1="384.13" y1="99.66" x2="384.13" y2="203.56"/>
      <line class="cls-2" x1="492.69" y1="99.66" x2="492.69" y2="203.56"/>
      <line class="cls-2" x1="601.25" y1="99.66" x2="601.25" y2="203.56"/>
      <line class="cls-2" x1="709.81" y1="99.66" x2="709.81" y2="203.56"/>
      <line class="cls-2" x1="818.37" y1="99.66" x2="818.37" y2="203.56"/>
      <line class="cls-2" x1="926.92" y1="99.66" x2="926.92" y2="203.56"/>
      <line class="cls-2" x1="1035.48" y1="99.66" x2="1035.48" y2="203.56"/>
      <line class="cls-2" x1="1144.04" y1="99.66" x2="1144.04" y2="203.56"/>
    </g>
    <g>
      <line class="cls-2" x1="58.45" y1="1003.72" x2="58.45" y2="1107.62"/>
      <line class="cls-2" x1="167.01" y1="1003.72" x2="167.01" y2="1107.62"/>
      <line class="cls-2" x1="275.57" y1="1003.72" x2="275.57" y2="1107.62"/>
      <line class="cls-2" x1="384.13" y1="1003.72" x2="384.13" y2="1107.62"/>
      <line class="cls-2" x1="492.69" y1="1003.72" x2="492.69" y2="1107.62"/>
      <line class="cls-2" x1="601.25" y1="1003.72" x2="601.25" y2="1107.62"/>
      <line class="cls-2" x1="709.81" y1="1003.72" x2="709.81" y2="1107.62"/>
      <line class="cls-2" x1="818.37" y1="1003.72" x2="818.37" y2="1107.62"/>
      <line class="cls-2" x1="926.92" y1="1003.72" x2="926.92" y2="1107.62"/>
      <line class="cls-2" x1="1035.48" y1="1003.72" x2="1035.48" y2="1107.62"/>
      <line class="cls-2" x1="1144.04" y1="1003.72" x2="1144.04" y2="1107.62"/>
    </g>
  </g>
</svg>