<?xml version="1.0" encoding="UTF-8"?>
<svg id="Layer_1" xmlns="http://www.w3.org/2000/svg" xmlns:xlink="http://www.w3.org/1999/xlink" viewBox="0 0 1318.45 1314.82">
  <defs>
    <style>
      .cls-1 {
        fill: #ffcd67;
      }

      .cls-1, .cls-2, .cls-3 {
        stroke: #000;
      }

      .cls-1, .cls-2, .cls-3, .cls-4, .cls-5, .cls-6 {
        stroke-miterlimit: 10;
      }

      .cls-1, .cls-3, .cls-4, .cls-5, .cls-6 {
        stroke-width: 6px;
      }

      .cls-2 {
        fill: url(#radial-gradient-2);
        stroke-width: 5px;
      }

      .cls-3 {
        fill: #00686b;
      }

      .cls-4 {
        fill: url(#radial-gradient);
        stroke: #231f20;
      }

      .cls-5 {
        fill: #489ab7;
      }

      .cls-5, .cls-6 {
        stroke: #ada8e2;
      }

      .cls-6 {
        fill: #503d8a;
      }
    </style>
    <radialGradient id="radial-gradient" cx="660.15" cy="650.82" fx="660.15" fy="650.82" r="458.1" gradientUnits="userSpaceOnUse">
      <stop offset="0" stop-color="#fff"/>
      <stop offset=".09" stop-color="#eceaf2"/>
      <stop offset=".42" stop-color="#a9a0c6"/>
      <stop offset=".69" stop-color="#796aa5"/>
      <stop offset=".89" stop-color="#5b4991"/>
      <stop offset="1" stop-color="#503d8a"/>
    </radialGradient>
    <radialGradient id="radial-gradient-2" cx="659.94" cy="654.48" fx="659.94" fy="654.48" r="232.93" gradientUnits="userSpaceOnUse">
      <stop offset="0" stop-color="#fff"/>
      <stop offset=".15" stop-color="#fffdfa"/>
      <stop offset=".32" stop-color="#fff9ed"/>
      <stop offset=".48" stop-color="#fff2d8"/>
      <stop offset=".66" stop-color="#ffe8b9"/>
      <stop offset=".83" stop-color="#ffdb93"/>
      <stop offset="1" stop-color="#ffcd67"/>
    </radialGradient>
  </defs>
  <g>
    <circle class="cls-6" cx="658.55" cy="650.82" r="650.82"/>
    <circle class="cls-5" cx="658.55" cy="650.82" r="604.78"/>
  </g>
  <circle class="cls-3" cx="660.15" cy="650.82" r="504.62"/>
  <circle class="cls-4" cx="660.15" cy="650.82" r="458.1"/>
  <g>
    <path class="cls-1" d="M927.96,639.86l8.72-4.72c37.53-20.31,68.79-50.85,88.04-85.98,8.67-15.84,15.04-33.87,18.41-52.15-15.32-10.55-32.58-18.8-49.9-23.86-38.45-11.24-82.15-10.72-123.05,1.45l-7.81,2.32c19.42,22.32,34.92,47.44,46.06,74.68,11.5,28.1,18.07,57.79,19.53,88.25Z"/>
    <path class="cls-1" d="M906.3,759.24c-11.74,27.11-27.82,52-47.79,73.96l11.68,3.47c40.9,12.18,84.6,12.69,123.05,1.45,17.33-5.06,34.58-13.31,49.9-23.85-3.37-18.28-9.74-36.32-18.41-52.15-19.24-35.12-50.5-65.66-88.04-85.98l-9.04-4.89c-2.07,30.46-9.25,60.06-21.35,87.99Z"/>
    <path class="cls-1" d="M838.95,453.16l2.25-7.55c12.17-40.9,12.69-84.6,1.45-123.05-5.06-17.33-13.31-34.58-23.86-49.9-18.29,3.38-36.32,9.74-52.15,18.41-35.13,19.25-65.67,50.51-85.98,88.04l-3.26,6.02c30.33,1.96,59.82,8.99,87.68,20.89,27.03,11.55,51.88,27.41,73.87,47.14Z"/>
    <path class="cls-1" d="M411.51,551.45c11.16-27.22,26.66-52.33,46.09-74.62l-7.48-2.22c-40.9-12.17-84.61-12.69-123.05-1.45-17.32,5.06-34.57,13.3-49.9,23.86,3.37,18.28,9.74,36.31,18.41,52.15,19.24,35.13,50.51,65.67,88.04,85.98l8.31,4.5c1.49-30.44,8.08-60.1,19.58-88.19Z"/>
    <path class="cls-1" d="M841.19,865.68l-3.54-11.9c-22.25,19.71-47.37,35.48-74.66,46.87-28.14,11.75-57.91,18.55-88.48,20.19l6.13,11.34c20.32,37.53,50.85,68.79,85.98,88.04,15.85,8.68,33.88,15.04,52.15,18.41,10.55-15.32,18.79-32.57,23.86-49.89,11.23-38.45,10.72-82.14-1.45-123.05Z"/>
    <path class="cls-1" d="M392.25,671.47l-8.63,4.67c-37.53,20.32-68.79,50.85-88.04,85.98-8.67,15.84-15.04,33.88-18.41,52.15,15.31,10.55,32.57,18.79,49.9,23.85,38.44,11.24,82.14,10.72,123.05-1.45l11.34-3.38c-19.97-21.95-36.05-46.81-47.81-73.9-12.11-27.91-19.31-57.49-21.41-87.93Z"/>
    <path class="cls-1" d="M481.27,452.87c22.01-19.69,46.89-35.5,73.93-47.01,27.87-11.86,57.37-18.84,87.7-20.75l-3.24-5.99c-20.32-37.53-50.85-68.79-85.98-88.04-15.83-8.67-33.86-15.03-52.15-18.41-10.54,15.31-18.79,32.57-23.86,49.9-11.23,38.45-10.72,82.14,1.45,123.05l2.16,7.25Z"/>
    <path class="cls-1" d="M482.57,854.07l-3.45,11.6c-12.17,40.91-12.69,84.61-1.45,123.05,5.06,17.33,13.31,34.58,23.86,49.89,18.27-3.37,36.31-9.73,52.15-18.41,35.13-19.25,65.67-50.51,85.98-88.04l6.12-11.31c-30.56-1.6-60.34-8.34-88.49-20.05-27.29-11.35-52.43-27.07-74.71-46.74Z"/>
  </g>
  <path class="cls-2" d="M659.94,887.41c128.64,0,232.93-104.29,232.93-232.93s-104.29-232.93-232.93-232.93-232.93,104.29-232.93,232.93,104.29,232.93,232.93,232.93Z"/>
</svg>